<svg width="208" height="401" viewBox="0 0 208 401" fill="none" xmlns="http://www.w3.org/2000/svg">
<path d="M162.679 400.743C149.561 401.073 136.401 401.013 123.283 400.953C86.6788 400.773 50.0327 400.623 13.4287 400.443C7.75829 400.413 0.395004 399.722 0.0141449 397.201C-0.324387 394.919 5.47279 393.419 10.3815 392.728C27.943 390.177 46.3934 389.606 64.6319 389.066C91.4607 388.316 118.247 387.625 145.076 387.085C161.833 386.725 179.014 386.455 194.586 388.886C203.05 390.207 215.575 396 201.992 398.942C198.226 399.752 190.651 399.452 186.631 399.662C178.633 400.112 170.677 400.533 162.679 400.743Z" fill="url(#paint0_linear_431_856)"/>
<path d="M162.679 400.743C149.561 401.073 136.401 401.013 123.283 400.953C86.6788 400.773 50.0327 400.623 13.4287 400.443C7.75829 400.413 0.395004 399.722 0.0141449 397.201C-0.324387 394.919 5.47279 393.419 10.3815 392.728C27.943 390.177 46.3934 389.606 64.6319 389.066C91.4607 388.316 118.247 387.625 145.076 387.085C161.833 386.725 179.014 386.455 194.586 388.886C203.05 390.207 215.575 396 201.992 398.942C198.226 399.752 190.651 399.452 186.631 399.662C178.633 400.112 170.677 400.533 162.679 400.743Z" fill="url(#paint1_linear_431_856)"/>
<path d="M97.2152 144.514C94.2107 141.602 90.6564 138.27 86.4247 136.019C83.3356 134.398 82.8276 134.908 79.273 136.139C75.7184 137.34 66.4087 140.161 62.8964 141.452C57.9877 143.253 54.1369 144.334 48.6781 146.345C44.7426 147.786 37.5489 149.347 35.56 152.168C33.4865 155.14 37.4218 157.962 39.7069 160.843C44.2771 166.577 49.9898 171.86 56.5913 176.543C58.6225 177.983 60.9497 179.424 63.8273 179.604C65.9431 179.754 68.017 179.154 70.0058 178.554C82.447 174.742 94.4649 170.239 105.933 165.106C107.964 164.205 112.237 162.885 112.915 161.084C113.549 159.343 111.011 157.872 109.657 156.611C105.383 152.619 101.362 148.536 97.2152 144.514Z" fill="#E5E5E5"/>
<path d="M94.4632 145.625C91.6279 142.893 88.2853 139.741 84.2652 137.61C81.3454 136.079 80.8795 136.559 77.4941 137.73C74.1511 138.871 66.5341 141.062 63.2334 142.293C58.5786 144.004 54.982 145.024 49.8193 146.915C46.0955 148.296 43.0485 148.626 41.1866 151.298C39.24 154.09 42.9218 156.761 45.1222 159.493C49.4385 164.896 54.8128 169.909 61.0334 174.291C62.9376 175.642 65.1803 177.023 67.8463 177.173C69.8775 177.293 71.8241 176.753 73.686 176.182C85.4501 172.58 91.8398 169.879 102.631 165.016C104.535 164.175 108.597 162.915 109.189 161.234C109.782 159.583 107.412 158.202 106.143 157.001C102.165 153.279 98.3563 149.437 94.4632 145.625Z" fill="white"/>
<path d="M49.3557 165.616C49.4827 165.736 49.6094 165.886 49.6941 166.037C49.9057 166.577 49.3979 167.117 48.7209 167.387C48.3823 167.537 48.0015 167.597 47.6206 167.567C46.7743 167.477 46.3089 166.817 46.182 166.217C45.9281 164.776 48.2978 164.656 49.3557 165.616Z" fill="#F7F7F7"/>
<path d="M97.341 146.735C97.5103 146.675 97.6795 146.765 97.8065 146.855C98.2719 147.246 98.6953 147.636 99.0762 148.056C99.1608 148.146 99.499 148.446 99.2874 148.536C99.0335 148.626 98.822 148.296 98.7797 148.176C98.4834 147.756 97.8489 147.456 97.4258 147.095C97.3411 147.035 97.2986 146.975 97.2563 146.915C97.214 146.855 97.2564 146.765 97.341 146.735Z" fill="#BFBFBF"/>
<path d="M99.7958 148.717C99.8804 148.747 99.9229 148.837 99.9229 148.897C99.8805 148.957 99.7961 149.017 99.5845 148.987C99.5422 148.927 99.4998 148.897 99.4998 148.837C99.4998 148.807 99.5422 148.777 99.5845 148.747C99.6268 148.717 99.7111 148.687 99.7958 148.717Z" fill="#BFBFBF"/>
<path d="M99.5835 148.716C99.5412 148.716 99.5835 148.747 99.5411 148.747H99.4988L99.5835 148.716Z" fill="#BFBFBF"/>
<path d="M90.6551 149.437C87.5237 148.326 83.9263 147.185 80.6256 148.056C79.6946 148.326 78.8064 148.776 78.4256 149.407C77.9178 150.277 78.4254 151.328 79.3564 152.018C80.2874 152.708 81.5142 153.129 82.7414 153.519C83.884 153.879 85.1535 154.329 85.4074 155.2C85.4497 155.35 85.4499 155.53 85.6192 155.65C85.7461 155.77 86.0001 155.83 86.2117 155.89C89.4278 156.671 92.7707 157.121 96.156 157.181C96.4522 157.181 96.7488 157.181 97.0027 157.091C97.3835 156.941 97.4676 156.581 97.5523 156.281C97.8908 154.87 99.0757 153.009 97.5523 151.928C96.6636 151.268 91.8823 149.437 90.6551 149.437Z" fill="#FFE7D9"/>
<path d="M98.6533 151.418C98.1032 151.298 97.4266 151.178 97.0034 151.478C96.7072 151.688 96.6222 151.988 96.5799 152.258C96.2836 153.999 96.0299 155.74 95.7337 157.481C95.6914 157.811 95.6068 158.142 95.7761 158.472C95.903 158.742 96.1994 158.982 96.4533 159.192C99.9656 161.984 103.351 164.866 106.609 167.807C107.582 168.678 108.556 169.578 109.825 170.209C111.095 170.839 112.745 171.229 114.226 170.929C116.765 170.419 117.865 168.348 118.585 166.577C119.643 163.965 119.473 163.785 116.68 162.044C114.691 160.783 112.872 159.372 111.01 157.991C107.455 155.35 103.647 152.618 98.6533 151.418Z" fill="#78675B"/>
<path d="M171.651 315.103C170.551 293.491 172.837 271.428 172.625 249.665C173.345 242.131 172.202 234.446 169.24 227.362C169.07 226.912 168.859 226.461 168.478 226.131C167.335 225.081 165.431 225.651 163.908 226.191C149.562 231.534 132.636 230.274 119.56 222.739C116.979 226.281 116.217 230.634 115.582 234.836C114.566 241.62 113.424 248.404 113.128 255.248V255.278C113.085 256.749 113.043 258.22 113.085 259.691C113.255 268.216 115.074 276.591 116.513 284.966C117.444 290.429 118.248 295.952 118.332 301.505C118.375 306.038 119.433 309.4 120.068 315.613C121.21 326.69 121.591 337.496 122.776 348.663C124.045 360.64 125.272 372.617 126.288 384.594C126.33 385.074 126.373 385.554 126.415 386.034C127.092 386.184 137.29 388.316 137.29 385.944C138.094 362.681 138.941 339.417 139.745 316.154C140.084 306.368 141.818 275.48 142.072 263.953C143.215 264.043 143.215 264.043 144.357 264.163C147.15 295.892 156.248 348.603 162.469 379.37C163.019 382.072 166.574 385.404 168.562 387.145C170.551 388.886 174.233 388.406 174.825 385.704C173.048 362.141 172.836 338.637 171.651 315.103Z" fill="#272826"/>
<path d="M141.902 385.795C141.775 385.524 141.691 385.254 141.564 384.984C140.294 381.472 139.66 377.84 139.66 374.208C139.66 372.557 139.787 370.876 139.236 369.285C136.274 369.315 127.98 368.925 125.018 368.955C124.764 368.955 124.468 368.955 124.299 369.075C124.087 369.195 124.002 369.405 123.96 369.585C122.648 374.568 127.049 380.091 125.441 385.044C124.806 387.025 122.182 387.746 119.77 388.766C117.697 389.637 113.592 391.828 111.138 391.828C109.699 392.248 108.218 392.639 107.16 393.419C106.102 394.23 105.679 395.55 106.652 396.391C107.499 397.111 109.022 397.201 110.376 397.201C120.701 397.291 131.027 396.661 141.183 395.34C141.775 395.25 142.452 395.16 142.876 394.86C143.214 394.62 143.384 394.26 143.51 393.929C144.78 390.838 143.087 388.586 141.902 385.795Z" fill="#494949"/>
<path d="M177.11 388.406C176.772 387.625 176.052 386.965 175.671 386.214C175.291 385.434 175.46 384.473 175.46 383.633C175.46 379.851 175.46 376.069 175.502 372.256C175.502 371.116 175.375 369.765 173.979 369.195C173.048 368.804 171.863 368.924 170.763 369.044C167.631 369.435 164.5 369.795 161.368 370.185C160.564 370.275 159.633 370.425 159.168 370.906C158.702 371.386 158.829 372.046 158.998 372.616C159.929 376.249 160.31 379.971 160.099 383.663C160.056 384.714 159.929 385.794 160.099 386.845C156.502 389.036 152.482 390.897 148.208 392.398C146.981 392.818 145.626 393.269 144.78 394.019C143.891 394.769 143.638 396 144.611 396.721C145.457 397.351 146.811 397.351 148.039 397.291C157.306 396.901 166.531 395.88 175.502 394.229C176.052 394.139 176.602 394.019 176.983 393.719C177.279 393.479 177.406 393.149 177.491 392.848C177.872 391.377 177.745 389.847 177.11 388.406Z" fill="#494949"/>
<path d="M201.483 248.104C202.287 248.915 203.133 249.785 203.43 250.776C203.726 251.766 203.43 252.817 203.007 253.808C200.594 259.421 193.274 263.773 185.064 264.494C183.033 264.674 181.002 264.644 179.055 265.034C175.585 265.724 172.877 267.586 169.703 268.816C165.429 270.497 160.309 271.038 155.527 270.257C150.407 269.447 145.963 267.225 141.012 265.995C136.992 265.004 132.676 264.674 128.487 265.004C124.086 265.364 119.854 266.445 115.496 267.045C111.137 267.616 106.355 267.646 102.589 265.995C99.5846 264.704 97.2997 262.393 93.8297 261.912C91.4177 261.582 88.7089 262.212 86.4661 261.462C83.8425 260.622 82.9541 258.28 82.9964 256.239C83.0387 253.267 84.4349 250.416 85.916 247.654C90.6131 238.949 96.5801 230.574 103.647 222.709C104.451 221.809 105.34 220.878 106.525 220.188C108.26 219.197 110.502 218.807 112.703 218.537C121.547 217.546 130.56 218.537 139.489 219.197C145.71 219.648 151.973 219.948 158.236 220.068C164.118 220.188 171.227 219.227 176.982 219.948C180.621 220.428 181.34 225.771 182.948 228.203C185.191 231.625 188.069 234.806 191.116 237.898C194.459 241.38 198.056 244.682 201.483 248.104Z" fill="#EBEFEB"/>
<path d="M125.778 80.7566C130.348 80.2764 134.918 80.0062 139.53 79.826C144.609 83.9084 147.782 89.3416 149.432 94.9249C150.787 99.4275 151.252 104.17 149.94 108.703C148.628 113.206 145.455 117.468 140.631 120.019C133.31 123.892 123.027 123.111 115.96 118.999C108.893 114.886 104.831 107.892 104.154 100.868C103.604 94.9549 105.212 89.0415 108.005 83.5182C113.294 81.7772 120.403 81.327 125.778 80.7566Z" fill="#FFE7D9"/>
<path d="M124.126 125.303C121.333 125.333 118.371 125.273 115.874 126.173C112.066 127.554 110.415 130.706 109.315 133.617C104.618 146.225 110.035 160.093 109.908 173.12C109.738 189.09 105.465 204.549 104.364 220.368C104.068 224.57 108.68 228.082 114.605 228.413C118.963 228.653 123.322 228.983 127.681 229.373C133.901 229.944 140.164 230.724 146.427 230.544C155.652 230.274 171.478 226.251 178.715 222.229C179.519 221.779 180.323 221.299 180.788 220.668C181.381 219.888 181.465 218.927 181.508 218.027C182.312 201.847 181.381 187.529 179.857 171.379C178.672 158.952 176.81 146.255 170.294 134.578C168.135 130.766 157.683 121.791 151.039 121.22C147.485 120.92 142.703 123.111 139.318 123.742C134.409 124.702 129.289 125.213 124.126 125.303Z" fill="#736357"/>
<path d="M66.3236 173.781C65.0118 172.91 63.4458 172.01 61.8378 172.28C60.7376 172.46 59.7643 173.181 58.6641 173.12C57.7754 173.06 57.0138 172.52 56.1675 172.22C54.3479 171.53 51.9359 172.19 50.9626 173.661C50.3702 174.561 50.3278 175.612 50.3278 176.633C50.3701 177.383 50.4544 178.163 51.0045 178.764C51.5969 179.394 52.5706 179.634 53.5015 179.844C57.3947 180.745 61.2879 181.555 65.2657 182.276C66.3659 182.486 67.5505 182.666 68.6084 182.306C74.4058 180.175 68.6934 175.342 66.3236 173.781Z" fill="#FFE7D9"/>
<path d="M140.758 133.737C137.923 131.186 132.548 129.685 128.571 131.306C126.666 132.086 125.354 133.437 124.212 134.758C113.083 147.845 112.194 164.235 101.742 177.593C101.107 178.433 100.388 179.244 99.3296 179.814C96.8329 181.165 93.2359 180.715 90.2314 180.084C84.9418 179.004 79.7795 177.683 74.7438 176.122C73.1781 175.642 71.3161 175.131 69.8773 175.762C68.8194 176.182 68.3536 177.052 67.9304 177.863C67.0417 179.544 66.2381 181.585 67.7615 183.026C68.3116 183.536 69.0733 183.866 69.835 184.197C81.1758 189.059 93.9552 192.241 107.116 193.502C108.893 193.682 110.882 193.802 112.405 193.082C113.379 192.601 114.013 191.851 114.606 191.101C119.261 185.277 123.577 179.334 127.555 173.24C129.29 170.569 130.982 167.897 132.633 165.226C138.388 155.89 151.633 143.523 140.758 133.737Z" fill="#78675B"/>
<path d="M96.875 95.1349C103.18 96.4557 110.035 92.6735 116.213 94.2044C122.053 95.6452 123.788 100.778 124.634 105.131C124.592 103.66 126.327 102.279 128.401 102.129C130.474 101.979 132.548 103.12 132.929 104.56C133.521 106.992 129.882 109.123 130.263 111.584C130.601 113.626 133.521 114.886 135.468 116.387C140.123 119.989 139.572 125.603 137.499 130.255C135.383 134.908 131.998 139.351 131.702 144.214C131.617 145.384 131.786 146.585 132.505 147.605C134.071 149.797 137.922 150.757 139.445 152.949C141.096 155.35 139.361 158.232 137.203 160.453C135.087 162.674 132.421 164.896 132.252 167.567C132.04 170.749 136.018 173.781 140.503 173.841C141.984 173.871 143.593 173.601 144.904 174.111C148.417 175.432 145.835 179.994 149.051 181.675C150.025 182.186 151.294 182.276 152.522 182.366C156.838 182.636 162 182.606 164.497 180.114C165.174 179.424 165.64 178.554 166.57 178.043C168.432 177.053 171.056 177.863 173.256 178.433C178.123 179.694 183.666 179.484 188.321 177.863C190.226 177.203 192.215 175.912 191.665 174.471C191.199 173.24 189.125 172.7 188.025 171.71C185.57 169.488 188.49 166.276 191.706 164.565C194.88 162.854 198.901 161.053 198.943 158.202C198.943 155.29 194.753 153.429 191.749 151.418C186.248 147.696 184.174 141.602 186.756 136.499C187.729 134.578 189.294 132.657 188.617 130.676C187.517 127.314 181.254 126.593 177.53 124.372C174.357 122.481 173.045 119.479 172.114 116.627C170.083 110.474 168.898 104.17 168.644 97.8665C168.517 94.9548 168.559 91.9831 167.417 89.1915C165.639 84.8389 161.069 81.2969 155.991 78.5052C147.909 74.0026 137.922 70.9408 127.682 71.0009C109.612 71.1209 94.7168 82.1373 96.875 95.1349Z" fill="#E8D9A9"/>
<path d="M123 2.5C112.71 2.5 104.333 11.475 104.333 22.5C104.333 36.425 120.573 55.85 121.273 56.675L123 58.75L124.727 56.675C125.427 55.85 141.667 36.425 141.667 22.5C141.667 11.475 133.29 2.5 123 2.5ZM123 51.175C117.913 44.65 109 31.35 109 22.5C109 18.5218 110.475 14.7064 113.101 11.8934C115.726 9.08035 119.287 7.5 123 7.5C126.713 7.5 130.274 9.08035 132.9 11.8934C135.525 14.7064 137 18.5218 137 22.5C137 32.075 127.083 45.9 123 51.175ZM120.97 35H125.053V39.375H120.97M123 12.5C120.834 12.5 118.757 13.4219 117.225 15.0628C115.694 16.7038 114.833 18.9294 114.833 21.25H118.917C118.917 20.0897 119.347 18.9769 120.113 18.1564C120.879 17.3359 121.917 16.875 123 16.875C124.083 16.875 125.122 17.3359 125.888 18.1564C126.653 18.9769 127.083 20.0897 127.083 21.25C127.083 25.65 120.97 25.1 120.97 32.2H125.053C125.053 27.275 131.167 26.725 131.167 21.25C131.167 18.9294 130.306 16.7038 128.775 15.0628C127.243 13.4219 125.166 12.5 123 12.5Z" fill="#FFAC33"/>
<defs>
<linearGradient id="paint0_linear_431_856" x1="207.746" y1="391.585" x2="0.649606" y2="405.985" gradientUnits="userSpaceOnUse">
<stop stop-color="#4D4D4D"/>
<stop offset="1"/>
</linearGradient>
<linearGradient id="paint1_linear_431_856" x1="207.746" y1="391.585" x2="0.649606" y2="405.985" gradientUnits="userSpaceOnUse">
<stop/>
<stop offset="1"/>
</linearGradient>
</defs>
</svg>
