<svg width="148" height="407" viewBox="0 0 148 407" fill="none" xmlns="http://www.w3.org/2000/svg">
<path d="M120.506 406.65C129.476 406.76 139.736 406.38 145.456 400.24C146.796 398.8 147.816 397 147.606 395.14C147.146 391.13 141.726 389.41 137.256 388.75C111.256 384.88 84.676 386.39 58.366 387.92C41.946 388.87 25.316 389.86 9.65599 394.34C1.48599 396.68 -4.99402 402.74 5.30598 405.43C15.286 408.03 30.576 405.53 41.046 405.67C67.536 405.98 94.016 406.32 120.506 406.65Z" fill="url(#paint0_linear_42_1906)"/>
<path d="M120.506 406.65C129.476 406.76 139.736 406.38 145.456 400.24C146.796 398.8 147.816 397 147.606 395.14C147.146 391.13 141.726 389.41 137.256 388.75C111.256 384.88 84.676 386.39 58.366 387.92C41.946 388.87 25.316 389.86 9.65599 394.34C1.48599 396.68 -4.99402 402.74 5.30598 405.43C15.286 408.03 30.576 405.53 41.046 405.67C67.536 405.98 94.016 406.32 120.506 406.65Z" fill="url(#paint1_linear_42_1906)"/>
<path d="M89.6563 63.6199C90.6263 62.0699 92.3862 61.0199 94.2962 61.2899C95.8862 61.5099 97.3462 62.5799 98.6462 63.6999C101.526 66.1799 104.046 69.0799 106.856 71.6499C110.046 74.5699 113.576 77.0499 116.986 79.6599C122.886 84.1799 128.496 89.1599 133.736 94.5199C135.126 95.9499 136.546 97.4799 137.176 99.3499C138.236 102.48 136.636 105.79 134.016 107.12C131.386 108.45 128.016 108.07 125.046 106.8C122.076 105.53 119.416 103.44 116.846 101.33C107.826 93.9099 99.3162 85.7699 91.4562 77.0199C87.5162 72.6699 86.8463 68.1199 89.6563 63.6199Z" fill="#DDE0DD"/>
<path d="M137.556 103.63C136.566 111.88 125.456 110.75 122.276 104.09C121.046 101.5 120.676 98.6599 120.166 95.8699C118.086 84.4299 113.496 73.5199 108.996 62.6699C108.626 61.7799 108.286 60.6999 108.936 59.9599C109.226 59.6299 109.666 59.4399 110.086 59.2599C111.946 58.4799 113.816 57.6899 115.676 56.9099C116.136 56.7199 116.656 56.5199 117.146 56.6499C117.656 56.7799 117.976 57.2299 118.246 57.6399C122.336 63.7799 125.786 70.2599 129.236 76.7199C133.586 84.8599 138.676 94.2699 137.556 103.63Z" fill="#DDE0DD"/>
<path d="M104.796 54.0802C104.476 53.7002 104.136 53.3102 104.026 52.8402C103.906 52.3702 104.086 51.8002 104.556 51.6002C104.746 51.5202 104.986 51.4902 105.086 51.3202C105.166 51.1702 105.106 50.9902 105.036 50.8402C104.666 49.9802 104.306 49.1202 103.936 48.2602C103.556 47.3602 103.166 46.4402 103.086 45.4702C102.886 42.9302 105.136 40.5202 107.806 40.2202C110.476 39.9202 113.196 41.6002 114.196 43.9702C114.646 45.0502 114.776 46.2302 114.926 47.3802C115.376 50.9102 116.056 54.4102 116.956 57.8702C117.146 58.6002 110.966 60.5102 109.976 59.9902C109.186 59.5702 108.566 58.4702 108.026 57.8302C106.936 56.5702 105.856 55.3302 104.796 54.0802Z" fill="#F0E3DA"/>
<path d="M95.2563 36.4102C95.0863 35.6502 94.9362 34.8401 95.1762 34.1501C95.4362 33.4101 96.5862 33.1501 97.2062 32.7801C99.0762 31.6801 101.066 30.8101 103.136 30.1701C103.726 29.9901 104.366 29.8301 104.986 30.0701C105.956 30.4501 106.486 31.6501 106.896 32.7101C109.146 38.5801 111.636 44.3001 114.216 50.0401C114.416 50.4901 114.656 51.2802 114.686 51.7702C114.716 52.1702 114.616 52.5501 114.476 52.8902C113.806 54.5401 111.846 54.9602 110.346 55.6602C109.656 55.9802 108.956 56.3001 108.216 56.4801C107.466 56.6701 106.656 57.0701 105.886 57.1801C105.406 57.2501 104.856 57.4301 104.606 57.2601C104.086 56.9201 103.186 55.4102 102.926 54.8002C102.556 53.9502 102.176 53.1102 101.786 52.2702C100.236 48.9602 98.9963 45.6802 97.6263 42.3002C96.8563 40.4402 95.6963 38.3602 95.2563 36.4102Z" fill="#333333"/>
<path d="M96.3064 37.3799C96.1764 36.7699 96.0864 36.1099 96.3164 35.5399C96.5664 34.9299 97.5964 34.6699 98.1664 34.3499C99.8664 33.3899 101.656 32.6099 103.506 32.0099C104.036 31.8399 104.606 31.6899 105.146 31.8599C105.996 32.1399 106.426 33.0899 106.746 33.9399C108.526 38.6499 110.536 43.2199 112.606 47.8099C112.766 48.1699 112.946 48.8099 112.956 49.1999C112.966 49.5199 112.866 49.8399 112.726 50.1199C112.066 51.4899 110.326 51.8999 108.966 52.5299C108.346 52.8199 107.716 53.0999 107.046 53.2699C106.376 53.4499 105.646 53.7999 104.956 53.9199C104.526 53.9899 104.036 54.1599 103.816 54.0299C103.376 53.7699 102.626 52.5699 102.416 52.0899C102.126 51.4099 101.816 50.7299 101.496 50.0699C100.246 47.4299 99.2664 44.7999 98.1764 42.0799C97.5764 40.6099 96.6264 38.9599 96.3064 37.3799Z" fill="white"/>
<path d="M99.4165 32.6602C99.3965 32.6002 99.3365 32.5502 99.2765 32.5502V32.5402C99.1765 32.5302 99.0965 32.6402 99.1265 32.7402C99.1465 32.8402 99.2665 32.9202 99.3565 32.9002C99.3765 32.9002 99.3865 32.8902 99.3965 32.8802C99.4065 32.8602 99.4165 32.8402 99.4165 32.8102C99.4265 32.7602 99.4265 32.7102 99.4165 32.6602Z" fill="#242424"/>
<path d="M99.6463 32.56C99.6163 32.5 99.6363 32.43 99.6763 32.38C99.7163 32.33 99.7663 32.31 99.8163 32.28C100.146 32.12 100.486 31.98 100.816 31.84C100.876 31.81 100.946 31.79 101.016 31.8C101.086 31.81 101.156 31.86 101.176 31.94C101.196 32.05 101.086 32.12 100.996 32.15C100.736 32.25 100.486 32.35 100.226 32.45C100.116 32.48 99.7263 32.74 99.6463 32.56Z" fill="#242424"/>
<path d="M109.826 53.3002C109.316 53.0202 108.556 53.1202 108.246 53.6102C108.086 53.8702 108.066 54.2502 108.236 54.5302C108.336 54.7002 108.476 54.8202 108.626 54.9302C108.826 55.0802 109.056 55.2002 109.296 55.1902C109.426 55.1902 109.546 55.1502 109.666 55.1002C109.876 55.0102 110.076 54.8702 110.206 54.6802C110.336 54.4802 110.406 54.2202 110.356 53.9702C110.286 53.6902 110.076 53.4402 109.826 53.3002Z" fill="#EAEAEA"/>
<path d="M96.0562 51.7401C99.9862 46.5601 101.756 40.0401 102.146 33.6C102.566 26.57 101.306 19.17 96.9662 13.61C92.6362 8.05005 84.7562 4.86005 78.0662 7.35005C73.6062 9.01005 70.2862 12.85 68.0262 17C62.2162 27.67 62.8562 41.28 69.0262 51.59C71.5362 55.78 75.1362 60.83 80.3662 60.94C86.0462 61.06 92.8762 55.93 96.0562 51.7401Z" fill="#F0E3DA"/>
<path d="M106.486 384.9C106.916 384.88 107.386 384.86 107.756 385.07C108.206 385.33 108.416 385.84 108.626 386.31C111.266 392.39 117.316 396.98 123.926 397.42C130.536 397.86 137.346 393.88 139.786 387.71C140.826 385.09 141.086 382.24 141.546 379.45C142.196 375.5 143.246 371.6 143.426 367.6C143.606 363.6 142.796 359.36 140.156 356.35C138.746 360.66 136.736 364.77 134.196 368.52C132.746 370.66 131.076 372.74 128.836 374.01C127.356 374.85 125.696 375.31 124.046 375.76C120.436 376.75 116.816 377.73 113.206 378.72C109.226 379.81 105.196 380.9 101.066 380.95C99.4061 380.97 93.4161 382.13 96.5661 384.64C98.7061 386.34 104.076 385.03 106.486 384.9Z" fill="#2B2B2B"/>
<path d="M57.3961 387.56C56.2761 391.03 54.7161 394.5 51.9961 396.93C48.6961 399.86 43.9761 400.9 39.6061 400.29C35.2261 399.68 31.1761 397.58 27.6661 394.89C25.2861 393.07 23.1061 390.95 21.5261 388.42C19.1561 384.62 18.2461 380.1 17.6561 375.66C16.6961 368.34 16.5461 360.62 19.5561 353.87C22.5661 347.13 29.4361 341.66 36.7961 342.29C43.9461 342.9 55.4961 349.32 57.8261 356.58C60.9661 366.43 60.5461 377.77 57.3961 387.56Z" fill="#2B2B2B"/>
<path d="M43.2963 363.98C43.3863 361.3 43.4463 358.61 43.0963 355.96C42.7963 353.69 42.1663 351.39 40.7263 349.61C38.5263 346.9 34.8363 345.9 31.3563 345.61C30.5363 345.54 29.6963 345.5 28.9163 345.77C28.0963 346.06 27.4363 346.66 26.7963 347.24C25.3263 348.58 23.8463 349.94 22.7263 351.58C21.5163 353.36 20.7563 355.4 20.1663 357.47C18.2463 364.14 17.8863 371.26 19.1163 378.09L19.3763 379.32C20.2563 382.08 20.8863 383.83 22.2563 386.39C23.3563 388.44 24.6563 390.45 26.5363 391.82C28.4163 393.19 31.8363 391.61 33.9563 390.65C35.2063 390.08 36.1863 389.04 37.0163 387.94C42.0963 381.26 42.9963 372.37 43.2963 363.98Z" fill="#D9D9D9"/>
<path d="M34.0461 363.63C33.7861 362.79 33.5061 361.92 32.8861 361.3C31.5761 359.99 29.1961 360.42 27.8961 361.74C26.5961 363.06 26.1161 364.98 25.8161 366.81C25.2561 370.24 25.1661 373.96 26.9261 376.96C27.6761 378.24 28.9761 379.42 30.4561 379.28C32.2961 379.1 33.2961 377.1 33.9561 375.38C34.5561 373.82 35.1561 372.25 35.4861 370.61C35.9861 368.08 34.7861 366 34.0461 363.63Z" fill="#2B2B2B"/>
<path d="M136.616 344.55C134.976 343.3 133.066 342.45 131.126 341.74C127.506 340.41 123.546 339.52 119.786 340.41C115.366 341.45 111.846 344.8 109.136 348.45C107.406 350.79 105.836 353.37 103.386 354.94C102.006 355.83 100.216 356.26 98.6059 356.05C95.3259 357.1 91.0359 356.78 88.4259 356.77C83.8159 356.76 79.1159 356.44 74.5159 356.77C71.1559 357.01 67.9659 357.68 64.5959 357.21C64.3959 357.18 64.2159 357.13 64.0559 357.07C61.2059 356.69 60.2159 353.13 59.2659 350.39C58.1659 347.21 56.2259 344.31 53.6959 342.09C50.6159 339.37 46.5359 337.84 42.4459 337.66C39.1359 337.52 29.3959 340.51 27.5259 343.69C34.1959 342.23 41.6859 343.07 46.7459 345.56C49.6259 346.98 52.7459 351.49 54.7659 353.98C56.8159 356.5 57.7359 359.73 58.6059 362.86C59.8459 367.28 61.0859 371.87 60.4359 376.41C60.3559 376.96 60.2659 377.56 60.5659 378.02C60.8259 378.42 61.3159 378.59 61.7659 378.73C64.3159 379.52 66.9559 380 69.5959 380.47C75.7359 381.57 81.8659 382.68 88.0059 383.78C89.2959 384.01 90.6059 384.25 91.9159 384.17C93.7059 384.06 95.3959 383.38 97.1059 382.86C101.016 381.65 105.106 381.21 109.166 380.66C115.596 379.8 122.096 378.64 127.936 375.83C133.786 373.01 138.986 368.32 141.126 362.2C143.276 356.07 141.776 348.49 136.616 344.55Z" fill="#E5E5E5"/>
<path d="M78.9859 358.73C82.3759 361.13 81.0359 367.13 84.6559 369.16C85.1759 369.45 85.7259 369.73 86.1159 370.19C87.2659 371.52 86.4759 373.74 85.0059 374.69C83.5359 375.64 81.6759 375.68 79.9259 375.68C76.4559 375.69 72.9859 375.7 69.5259 375.71C68.1959 375.71 66.6159 375.59 65.9359 374.45C65.4459 373.64 65.6159 372.61 65.7359 371.67C65.9959 369.63 65.9259 367.55 65.5559 365.53C65.3559 364.43 65.0559 363.34 64.6759 362.29C64.4259 361.59 62.6559 359.44 63.3159 359.26C66.7359 358.37 77.4959 357.67 78.9859 358.73Z" fill="#2B2B2B"/>
<path d="M100.876 369.17C101.346 370.2 101.876 371.24 102.756 371.95C103.826 372.81 105.256 373.04 106.616 373.21C112.586 373.93 118.656 373.86 124.616 372.98C125.576 372.84 126.746 372.49 126.926 371.53C127.096 370.61 126.206 369.87 125.416 369.36C120.756 366.36 115.976 363.55 111.196 360.74C109.626 359.82 108.046 358.89 106.306 358.34C104.406 357.74 98.666 356.45 97.646 358.93C96.736 361.18 99.936 367.1 100.876 369.17Z" fill="#2B2B2B"/>
<path d="M104.706 34.2401C104.036 33.4401 103.616 32.4601 103.306 31.4701C103.046 30.6201 103.076 27.5901 102.616 25.6601C103.246 22.1401 103.576 18.5601 103.536 14.9801C103.506 12.0301 103.006 11.6001 101.996 8.81008C100.986 6.02008 99.2259 4.87007 96.6259 3.29007C93.1659 1.18007 88.7459 1.10009 84.7259 1.85009C84.6459 1.87009 84.5459 1.89009 84.4659 1.91009C81.9659 0.640085 78.3959 0.0100816 76.3859 8.16156e-05C73.4459 -0.00991838 70.5659 0.900075 67.9659 2.15008C64.5059 3.81008 61.4059 6.11007 58.7359 8.79008C57.2359 10.2901 55.8659 11.9101 54.8159 13.7301C53.3759 16.2201 52.5759 19.0201 52.0459 21.8301C51.8359 22.9501 51.6559 24.0901 51.7459 25.2301C51.8759 26.9301 52.5659 28.5501 53.2559 30.1301C55.9859 36.4201 59.0259 43.0701 64.9259 46.8601C65.4559 47.2001 66.1859 47.4401 66.6859 47.1801C67.5359 48.6601 68.4259 50.1201 69.3159 51.5701C67.4359 48.1301 68.3959 43.8801 70.1959 40.4201C70.6659 39.5201 71.1159 38.2601 70.2759 37.6401C70.0159 37.4501 69.6759 37.3701 69.3859 37.2101C68.0959 36.4801 68.5559 34.6201 69.1859 33.3201C69.2559 33.1801 69.3359 33.0201 69.4959 32.9801C69.7059 32.9201 69.8959 33.1001 70.0659 33.2401C71.2959 34.2401 73.2059 33.4201 74.3559 32.3401C76.2559 30.5401 77.4159 28.1301 78.0559 25.6401C78.3759 24.3901 78.5859 23.1001 79.1959 21.9601C79.7959 20.8501 80.9259 19.8401 82.3059 19.8201C83.7559 19.8001 84.4259 21.0401 85.7159 21.3201C88.3559 21.8901 89.6659 18.4901 92.5459 19.4301C94.9959 20.2301 95.9759 22.9801 96.6259 25.3801C97.6959 29.3201 98.7759 33.2501 99.8459 37.1901C100.286 36.0801 100.556 34.9301 100.746 33.7701C100.946 34.0101 101.166 34.2401 101.386 34.4601C101.786 34.8701 102.186 35.2801 102.676 35.5801C104.046 36.4201 105.826 36.2201 107.396 35.8301C106.336 35.6701 105.376 35.0501 104.706 34.2401Z" fill="#8C6239"/>
<path d="M77.3258 357.13C78.7958 359.35 80.7859 361.2 82.2259 363.44C83.6659 365.68 84.4958 368.6 83.3558 371.01C82.2758 373.29 79.6658 374.51 77.1459 374.68C76.0058 374.76 74.8359 374.65 73.7759 374.23C70.7859 373.05 69.3059 369.79 67.8159 366.95C66.2059 363.89 64.2559 361 62.9459 357.81C61.6359 354.61 60.9958 350.97 62.1358 347.7C62.3058 347.22 67.8659 347.23 68.5659 347.2C69.8759 347.14 73.1159 346.45 74.1659 347.42C75.0359 348.23 74.7959 350.61 75.0359 351.68C75.4559 353.62 76.2358 355.47 77.3258 357.13Z" fill="#998675"/>
<path d="M117.086 358.78C118.556 359.41 120.176 359.81 121.406 360.83C123.766 362.8 123.846 366.69 122.026 369.16C121.606 369.74 121.086 370.26 120.456 370.6C119.486 371.13 118.336 371.18 117.236 371.2C114.606 371.25 111.976 371.14 109.356 370.89C108.556 370.81 107.716 370.71 107.016 370.31C106.516 370.02 106.116 369.6 105.726 369.17C103.326 366.58 101.006 363.82 99.7262 360.54C98.1462 356.5 98.2462 352.03 98.5362 347.7C98.5562 347.45 98.5762 347.18 98.7562 347C98.9262 346.82 99.1962 346.79 99.4362 346.76C101.846 346.5 104.586 346.08 107.006 346.37C109.206 346.63 108.856 348.46 109.396 350.21C110.556 354.01 113.466 357.22 117.086 358.78Z" fill="#998675"/>
<path d="M90.2459 205.95C89.7459 193.97 89.3059 181.61 93.4959 170.37C95.1859 165.84 97.6159 161.58 100.726 157.88C102.436 155.85 104.426 153.93 106.916 153.02C109.406 152.11 112.496 152.42 114.306 154.36C115.386 155.52 115.896 157.09 116.336 158.61C117.626 163.08 118.616 167.64 119.286 172.25C121.286 185.94 120.486 199.86 119.696 213.66C117.186 257.16 114.676 300.67 112.156 344.17C112.066 345.69 111.856 347.45 110.576 348.28C109.756 348.82 108.696 348.82 107.716 348.8C104.966 348.74 98.2259 349.9 96.3559 347.6C94.4859 345.3 95.6859 336.16 95.5659 333.17C95.1359 322.84 94.7059 312.52 94.2759 302.19C93.4159 281.54 92.5559 260.89 91.6859 240.23C91.2059 228.81 90.7259 217.38 90.2459 205.95Z" fill="#97A8B2"/>
<path d="M47.2059 178.36C46.9059 170.98 46.946 162.72 51.496 157.39C55.056 153.22 60.516 151.99 65.626 151.43C69.706 150.98 74.1959 150.95 77.4559 153.76C81.0259 156.84 81.9859 162.34 82.5559 167.36C85.5459 193.74 84.4859 220.45 83.4259 247.02C82.1259 279.61 80.8159 312.19 79.5159 344.78C79.4459 346.56 79.206 348.65 77.816 349.49C77.116 349.91 76.2859 349.9 75.4859 349.88C72.6359 349.81 62.086 351.37 60.156 349.25C58.076 346.97 58.6659 335.25 58.3659 331.93C57.2359 319.52 56.1159 307.1 55.0359 294.68C52.9059 270.03 50.9459 245.36 49.3959 220.65C48.5159 206.57 47.7659 192.47 47.2059 178.36Z" fill="#97A8B2"/>
<path d="M80.0262 62.7903C74.7362 62.3903 69.2762 60.8203 64.2462 62.5803C57.4562 64.9603 54.3062 72.3003 52.2662 78.8903C42.1062 111.84 39.7762 146.52 42.6162 180.45C43.0762 185.89 44.0662 192 48.7762 195.04C52.4562 197.41 57.3462 197.15 61.8262 196.7C79.6762 194.9 97.0662 200.57 114.296 195.54C118.236 194.39 122.446 192.95 124.826 189.72C127.316 186.32 123.776 172.83 123.336 168.77C121.816 154.78 115.136 143.64 112.126 129.91C108.466 113.25 112.126 93.8503 107.276 77.4903C105.806 72.5203 104.976 63.4603 99.0362 61.4703C93.5362 59.6303 85.8562 63.2303 80.0262 62.7903Z" fill="#EBEFEB"/>
<path d="M106.546 172.37C104.706 171.84 102.626 172.07 100.666 172.3C93.0062 173.21 85.3462 174.12 77.6862 175.03C74.0662 175.46 70.3662 175.89 66.7462 175.45C65.3262 175.28 63.8862 174.97 62.4562 175.14C59.6362 175.47 57.8662 177.5 56.8062 179.41C56.4262 180.1 56.0762 180.88 56.4162 181.58C56.7562 182.29 58.0962 182.76 58.8762 182.27L60.6662 182.17C70.3962 182.4 74.3562 182 84.0862 181.75C87.6962 181.66 91.3162 181.53 94.8862 181.13C99.3762 180.62 103.766 179.67 107.906 178.31C108.476 178.12 109.076 177.91 109.446 177.55C109.726 177.27 109.866 176.94 109.936 176.6C110.286 174.85 108.816 173.01 106.546 172.37Z" fill="#DBDBDB"/>
<path d="M98.1561 172.08C96.6461 171.34 95.2661 170.22 94.5361 168.7C94.0461 167.68 93.8661 166.54 93.7761 165.41C93.6261 163.4 93.9061 161.09 95.5261 159.91C96.8761 158.93 98.7761 159.06 100.286 159.77C101.796 160.48 103.006 161.68 104.236 162.81C107.326 165.65 110.726 168.2 114.536 169.98C117.816 171.52 121.356 172.46 124.656 173.96C125.956 174.55 127.266 175.26 128.176 176.37C129.046 177.42 129.496 178.83 129.296 180.18C129.096 181.53 128.196 182.78 126.946 183.31C126.336 183.57 125.676 183.65 125.016 183.7C121.466 183.96 117.836 183.16 114.726 181.42C112.556 180.21 110.656 178.56 108.486 177.35C106.646 176.33 104.636 175.61 103.016 174.23C101.596 173.04 99.8161 172.9 98.1561 172.08Z" fill="#2B2B2B"/>
<path d="M83.0659 246.67C82.1259 259.87 82.4058 273.37 82.1758 286.6C81.9358 300.71 83.2758 314.79 84.6058 328.84C85.5658 338.96 88.2558 358.42 89.2158 368.54C89.3858 370.3 89.5758 372.13 90.4658 373.66C91.3558 375.19 93.1858 376.33 94.8958 375.86C97.5558 375.13 97.9458 371.58 97.8058 368.83C96.1958 337.66 94.4158 298.54 92.8058 267.36C92.5158 261.74 92.4758 257 92.7758 251.38C93.0658 246.07 92.5258 240.46 92.6358 233.21C93.0158 207.18 91.2358 200.35 87.2358 175.41C86.8758 173.14 86.4158 170.69 84.7358 169.11C79.7158 164.39 77.9758 172.22 79.5258 175.78C82.1458 181.81 82.6759 187.45 83.2859 194.11C84.7059 209.58 84.1658 205.5 84.0458 221.04C83.9958 229.59 83.6759 238.14 83.0659 246.67Z" fill="#D9D9D9"/>
<path d="M64.1361 175.6C66.4561 173.87 69.0361 172.44 71.0461 170.36C71.8361 169.54 72.5662 168.49 72.4162 167.37C72.3162 166.61 71.8261 165.97 71.3561 165.36C70.1961 163.87 68.7561 162.23 66.8661 162.27C64.8162 162.31 63.4261 164.28 62.1361 165.88C58.5461 170.35 45.4461 177.2 46.7061 183.92C48.5261 193.53 61.8161 177.33 64.1361 175.6Z" fill="#2B2B2B"/>
<path d="M71.2963 62.6201C74.0363 64.1901 75.6263 67.4001 76.2463 70.6201C76.8563 73.8401 76.6463 77.1701 76.6763 80.4601C76.7263 85.9001 77.4363 91.3001 78.1363 96.6901C80.5863 115.37 83.0363 134.06 85.4963 152.74C85.6063 153.61 85.6863 154.62 85.1063 155.26C84.7363 155.66 84.1863 155.81 83.6663 155.94C73.7863 158.33 63.6863 159.75 53.5563 160.18C50.5463 160.31 47.4763 160.34 44.5963 159.44C42.9563 158.93 41.2863 158.02 40.5263 156.4C40.0363 155.36 39.9763 154.16 39.9363 153C39.1963 128.1 45.3363 103.62 51.4263 79.5501C52.1863 76.5301 52.9663 73.4801 54.4663 70.7801C57.6863 65.0001 64.6263 58.7901 71.2963 62.6201Z" fill="#333333"/>
<path d="M59.196 63.6003C55.526 63.4403 52.276 66.2602 49.696 69.1602C44.186 75.3702 39.876 82.6502 35.606 89.8902C30.506 98.5302 25.406 107.16 20.316 115.8C18.846 118.28 17.316 121.05 17.696 123.91C17.836 125.02 18.266 126.06 18.696 127.07C24.056 139.81 30.046 152.22 36.626 164.26C37.076 165.08 37.566 165.95 38.366 166.38C39.506 167 40.916 166.54 42.116 165.98C44.096 165.05 46.156 163.57 46.606 161.32C46.896 159.88 46.456 158.43 46.026 157.06C44.306 151.57 42.596 146.08 40.876 140.6C38.616 133.36 36.366 125.32 39.206 118.14C41.576 112.13 46.966 108.18 50.916 103.18C53.566 99.8302 55.606 95.9302 58.516 92.8402C61.476 89.7002 65.326 87.4103 67.446 83.5703C71.386 76.4503 67.666 63.9803 59.196 63.6003Z" fill="#DDE0DD"/>
<path d="M42.8359 171.1C43.9059 173.44 44.9859 175.78 46.0559 178.12C46.4959 179.09 46.9459 180.06 47.5359 180.95C47.8959 181.49 48.3159 182 48.8459 182.38C49.8659 183.12 51.1859 183.31 52.4459 183.29C54.0059 183.26 55.6759 182.86 56.6759 181.67C57.5859 180.59 57.7759 179.01 57.3859 177.65C56.9959 176.29 56.1059 175.11 55.0859 174.14C54.8059 173.87 54.4859 173.5 54.6459 173.15C54.7059 173.01 54.8359 172.91 54.9359 172.79C55.3759 172.3 55.2959 171.51 54.9659 170.94C54.6359 170.37 54.0959 169.96 53.5959 169.53C52.3359 168.43 51.2859 167.12 50.2359 165.81C49.1059 164.39 47.9759 162.97 46.8459 161.56C46.6459 161.31 46.4059 161.05 46.0959 161.05C45.8359 161.05 45.6259 161.24 45.4359 161.41C44.6259 162.15 43.7459 162.8 42.8059 163.37C41.7059 164.04 40.2959 164.91 40.8159 166.39C41.3659 167.99 42.1259 169.56 42.8359 171.1Z" fill="#F0E3DA"/>
<path d="M91.6759 75.21C94.6159 83.97 95.5459 93.25 96.4659 102.44C98.0359 118.18 99.6059 133.91 101.166 149.65C101.226 150.26 101.296 150.89 101.656 151.39C102.016 151.88 102.606 152.15 103.176 152.37C107.926 154.22 113.236 154.6 118.196 153.45C118.856 153.3 119.616 153.01 119.786 152.36C119.866 152.05 119.786 151.73 119.706 151.42C117.516 142.79 114.616 134.31 113.406 125.49C112.896 121.76 112.686 118 112.506 114.24C111.856 100.74 111.526 87.09 108.176 74C106.936 69.15 105.116 64.15 101.246 60.98C98.0359 58.35 92.1159 57.15 88.7359 60.19C85.4159 63.14 90.4659 71.59 91.6759 75.21Z" fill="#333333"/>
<path d="M67.2863 133.24C68.4763 133.13 69.6763 133.01 70.7863 132.59C71.8563 132.19 72.8463 131.52 73.9763 131.4C74.2663 131.37 74.5863 131.38 74.8263 131.55C75.0063 131.68 75.1263 131.88 75.2363 132.08C76.0063 133.57 76.2362 135.33 75.8862 136.97C67.2262 137.3 58.5763 137.81 49.9363 138.49C49.6663 138.51 49.6863 135.26 50.4863 134.85C51.7863 134.18 54.4963 134.46 55.9763 134.32C59.7563 133.95 63.5263 133.6 67.2863 133.24Z" fill="#292929"/>
<path d="M71.2261 114.57C71.8061 114.51 72.436 114.42 72.826 113.99C73.726 113.01 72.586 111.48 72.676 110.15C65.276 109.84 58.056 112.95 50.666 112.67C50.496 112.66 50.306 112.66 50.166 112.76C49.976 112.91 49.966 113.19 49.976 113.43C50.006 113.94 49.806 115.76 50.166 116.12C50.556 116.52 52.2261 116.14 52.7661 116.11C54.8361 115.99 56.906 115.85 58.976 115.69C63.046 115.38 67.1761 115.14 71.2261 114.57Z" fill="#292929"/>
<path d="M113.006 129.49C113.696 129.49 114.486 129.53 114.926 130.06C115.186 130.37 115.276 130.79 115.346 131.19C115.466 131.84 115.596 132.5 115.716 133.15C115.746 133.32 115.776 133.51 115.696 133.66C115.636 133.76 115.536 133.83 115.436 133.89C114.846 134.22 114.136 134.26 113.456 134.28C111.276 134.33 109.096 134.28 106.926 134.12C106.616 134.1 106.266 134.06 106.056 133.83C105.896 133.66 105.836 133.41 105.786 133.18C105.456 131.68 104.666 129.88 106.676 129.5C108.626 129.13 111.016 129.49 113.006 129.49Z" fill="#292929"/>
<path d="M112.726 110.46C112.826 110.45 112.926 110.44 113.006 110.39C113.176 110.28 113.196 110.04 113.196 109.83C113.186 108.61 113.126 107.4 113.016 106.19C112.996 105.93 112.956 105.65 112.756 105.49C112.516 105.29 112.166 105.36 111.866 105.44C108.716 106.29 105.506 107.46 102.276 106.99C102.316 107 102.476 110.28 102.656 110.63C103.166 111.6 103.636 111.4 104.756 111.29C107.416 111.01 110.066 110.73 112.726 110.46Z" fill="#292929"/>
<defs>
<linearGradient id="paint0_linear_42_1906" x1="-0.00311559" y1="396.481" x2="147.634" y2="396.481" gradientUnits="userSpaceOnUse">
<stop stop-color="#4D4D4D"/>
<stop offset="1"/>
</linearGradient>
<linearGradient id="paint1_linear_42_1906" x1="-0.00311559" y1="396.481" x2="147.634" y2="396.481" gradientUnits="userSpaceOnUse">
<stop/>
<stop offset="1"/>
</linearGradient>
</defs>
</svg>
