<svg width="902" height="203" viewBox="0 0 902 203" fill="none" xmlns="http://www.w3.org/2000/svg">
<path fill-rule="evenodd" clip-rule="evenodd" d="M901.004 202.155L871.002 197.383C841 192.611 780.996 183.067 720.986 159.201C660.976 135.335 600.959 97.1465 540.953 82.8283C480.947 68.5101 420.951 78.0618 360.962 101.935C300.972 125.809 240.988 164.005 180.992 173.556C120.996 183.108 60.9878 164.016 30.9837 154.47L0.979692 144.924L0.919092 1.7043L30.9191 1.70243C60.9191 1.70056 120.919 1.69683 180.919 1.6931C240.919 1.68937 300.919 1.68564 360.919 1.68191C420.919 1.67818 480.919 1.67445 540.919 1.67072C600.919 1.66699 660.919 1.66326 720.919 1.65953C780.919 1.6558 840.919 1.65207 870.919 1.6502L900.919 1.64834L901.004 202.155Z" fill="#0099FF"/>
<path fill-rule="evenodd" clip-rule="evenodd" d="M901.006 141.086L871.005 137.792C841.003 134.498 781 127.909 720.993 111.433C660.987 94.9571 600.975 68.5929 540.971 58.7086C480.967 48.8244 420.97 55.4201 360.977 71.9038C300.984 88.3875 240.995 114.759 180.998 121.355C121 127.951 60.9949 114.77 30.9921 108.18L0.98933 101.59L0.947491 2.71041L30.9475 2.70854C60.9475 2.70668 120.947 2.70295 180.947 2.69922C240.947 2.69549 300.947 2.69176 360.947 2.68803C420.947 2.6843 480.947 2.68057 540.947 2.67683C600.947 2.6731 660.947 2.66937 720.947 2.66564C780.947 2.66191 840.947 2.65818 870.947 2.65632L900.947 2.65445L901.006 141.086Z" fill="#00C4BA"/>
<path fill-rule="evenodd" clip-rule="evenodd" d="M901.043 81.4456L871.042 79.5192C841.042 77.5928 781.04 73.74 721.036 64.1024C661.032 54.4647 601.025 39.0422 541.023 33.2611C481.02 27.48 421.022 31.3403 361.026 40.9854C301.03 50.6305 241.037 66.0605 181.038 69.9208C121.04 73.781 61.0366 66.0717 31.035 62.217L1.03336 58.3623L1.00888 0.514025L31.0089 0.51216C61.0089 0.510295 121.009 0.506564 181.009 0.502834C241.009 0.499103 301.009 0.495373 361.009 0.491642C421.009 0.487912 481.009 0.484181 541.009 0.480451C601.009 0.47672 661.009 0.47299 721.009 0.469259C781.009 0.465529 841.009 0.461798 871.009 0.459933L901.009 0.458068L901.043 81.4456Z" fill="#80CCFF"/>
</svg>
